# xmcd CD database file
#
# Track frame offsets:
#	150
#	20098
#	36230
#	53437
#	67862
#	84500
#	107086
#	126135
#	141032
#	157763
#	173203
#	193166
#
# Disc length: 2884 seconds
#
# Revision: 0
# Processed by: cddbd v1.5.2PL0 Copyright (c) Steve Scherf et al.
# Submitted via: CDex 1.70beta2
#
DISCID=970b420c
DTITLE=Old Merrytale Jazzband - Live in der Fabrik
DYEAR=1976
DGENRE=Jazz
TTITLE0=Ice Cream
TTITLE1=Preoria
TTITLE2=Black And Blue
TTITLE3=Isle Of Capri
TTITLE4=Dardanella
TTITLE5=The Sheik Of Araby
TTITLE6=It's Tight Like That
TTITLE7=Ole Miss
TTITLE8=Creole Love Call
TTITLE9=Maryland My Maryland
TTITLE10=Margie
TTITLE11=Gisela
EXTD=YEAR: 1976
EXTT0=
EXTT1=
EXTT2=
EXTT3=
EXTT4=
EXTT5=
EXTT6=
EXTT7=
EXTT8=
EXTT9=
EXTT10=
EXTT11=
PLAYORDER=
